<?xml version="1.0" standalone="no"?>
<!DOCTYPE svg PUBLIC "-//W3C//DTD SVG 20010904//EN"
 "http://www.w3.org/TR/2001/REC-SVG-20010904/DTD/svg10.dtd">
<svg version="1.0" xmlns="http://www.w3.org/2000/svg"
 width="256.000000pt" height="256.000000pt" viewBox="0 0 256.000000 256.000000"
 preserveAspectRatio="xMidYMid meet">
<metadata>
Created by potrace 1.14, written by Peter Selinger 2001-2017
</metadata>
<g transform="translate(0.000000,256.000000) scale(0.100000,-0.100000)"
fill="#000000" stroke="none">
<path d="M795 2459 c-16 -5 -44 -11 -61 -13 -49 -8 -68 -17 -89 -42 -26 -30
-98 -43 -119 -21 -13 12 -27 11 -111 -7 -99 -22 -111 -29 -129 -88 -3 -11 -15
-18 -31 -18 -15 0 -24 4 -20 9 9 16 -35 50 -59 45 -11 -2 -34 -6 -51 -9 -69
-12 -84 -17 -100 -35 -15 -17 -16 -26 -7 -62 6 -24 14 -59 17 -78 4 -19 8 -39
9 -45 2 -5 9 -38 16 -73 9 -46 19 -68 36 -79 13 -8 27 -12 32 -9 5 3 24 8 43
11 100 16 119 28 119 74 0 36 37 40 65 5 24 -29 51 -32 123 -15 29 7 55 11 57
9 7 -7 32 -138 26 -139 -3 0 -121 -1 -262 -2 -237 -2 -259 -3 -278 -21 l-21
-19 0 -846 c0 -819 1 -847 20 -871 l19 -25 1223 -1 c717 0 1234 4 1251 9 15 5
32 17 37 27 6 12 10 233 10 579 0 541 -1 560 -19 573 -26 18 -25 97 1 116 16
12 18 32 18 223 0 272 12 257 -191 257 -79 0 -149 0 -155 1 -7 1 -29 47 -49
104 -50 136 -53 139 -155 139 -62 0 -86 -4 -100 -17 -10 -9 -35 -64 -56 -121
-20 -57 -39 -104 -43 -105 -9 -1 -94 -1 -111 0 -12 1 -16 18 -17 82 -1 64 -7
92 -25 128 -63 122 -231 138 -321 31 -33 -38 -45 -86 -46 -169 0 -35 -3 -66
-6 -69 -7 -7 -424 -6 -431 1 -6 5 -32 112 -40 164 -6 35 -12 31 86 53 80 17
86 15 117 -42 37 -69 66 -80 128 -50 94 45 101 105 29 236 -58 106 -109 160
-179 192 -55 25 -150 36 -200 23z m-149 -949 c58 -280 85 -407 90 -422 5 -17
-11 -18 -245 -18 l-251 0 0 95 c0 82 -3 98 -20 115 -14 14 -20 33 -20 63 0 31
5 45 20 55 18 11 20 23 20 117 l0 105 192 -2 192 -3 22 -105z m645 83 c0 -16
1 -47 2 -70 2 -38 0 -42 -33 -57 -112 -49 -79 -213 44 -218 20 -1 36 -6 37
-12 0 -6 1 -45 2 -86 l2 -75 -162 -3 -161 -2 -6 27 c-4 16 -8 37 -10 48 -10
49 -77 364 -86 402 -19 78 -32 73 180 73 l190 0 1 -27z m600 15 c0 -7 1 -130
2 -273 l1 -260 -132 -3 -132 -3 0 89 0 89 35 1 c50 2 90 26 109 66 28 59 3
123 -57 152 -32 15 -33 17 -34 85 l0 69 103 0 c76 0 104 -3 105 -12z m429 5
c1 -16 1 -341 0 -440 l0 -103 -98 0 -97 0 0 275 0 275 98 0 c53 0 97 -3 97 -7z"/>
</g>
</svg>
